<svg width="500" height="200" viewBox="0 0 500 200" fill="none" xmlns="http://www.w3.org/2000/svg">
  <!-- Gradients -->
  <defs>
    <linearGradient id="swooshGradient" x1="0%" y1="0%" x2="100%" y2="100%">
      <stop offset="0%" stop-color="#1a3a7e" />
      <stop offset="50%" stop-color="#5d2a64" />
      <stop offset="100%" stop-color="#a02a3c" />
    </linearGradient>
  </defs>
  
  <!-- Swoosh symbol -->
  <g transform="translate(35, 10) scale(0.6)">
    <!-- Main swoosh shape -->
    <path d="M80 50C40 60 30 120 60 140C90 160 120 120 110 80C100 40 60 40 50 70C40 100 70 130 100 120" 
          fill="url(#swooshGradient)" />
    <!-- Dot above swoosh -->
    <circle cx="130" cy="30" r="15" fill="#1a3a7e" />
  </g>
  
  <!-- VELOCITY text -->
  <g transform="translate(0, 120)">
    <path d="M44.736 0L35.904 24H31.68L22.848 0H27.36L34.032 19.2L40.704 0H44.736Z" fill="#050038"/>
    <path d="M65.6539 0V24H61.6219V13.824L54.6219 24H53.4219L46.3979 13.824V24H42.3659V0H45.9179L54.0219 11.904L62.1019 0H65.6539Z" fill="#050038" transform="translate(45, 0)"/>
    <path d="M75.4258 0V24H71.3938V0H75.4258Z" fill="#050038" transform="translate(110, 0)"/>
    <path d="M104.63 0C107.91 0 110.67 0.832 112.91 2.496C115.15 4.16 116.63 6.464 117.35 9.408H112.91C112.38 7.744 111.39 6.416 109.94 5.424C108.5 4.432 106.75 3.936 104.7 3.936C102.94 3.936 101.37 4.336 99.9855 5.136C98.5975 5.936 97.5175 7.072 96.7455 8.544C95.9735 10.016 95.5855 11.744 95.5855 13.728C95.5855 15.68 95.9735 17.392 96.7455 18.864C97.5175 20.336 98.5975 21.472 99.9855 22.272C101.37 23.072 102.94 23.472 104.7 23.472C106.75 23.472 108.5 22.976 109.94 21.984C111.39 20.992 112.38 19.664 112.91 18H117.35C116.63 20.944 115.15 23.248 112.91 24.912C110.67 26.576 107.91 27.408 104.63 27.408C101.99 27.408 99.6295 26.8 97.5495 25.584C95.4695 24.368 93.8535 22.656 92.7015 20.448C91.5495 18.24 90.9735 16.128 90.9735 13.728C90.9735 11.296 91.5495 9.152 92.7015 6.96C93.8535 4.768 95.4695 3.056 97.5495 1.824C99.6295 0.608 101.99 0 104.63 0Z" fill="#050038" transform="translate(130, 0)"/>
    <path d="M142.61 0V24H138.578V13.824L131.578 24H130.378L123.354 13.824V24H119.322V0H122.874L130.978 11.904L139.058 0H142.61Z" fill="#050038" transform="translate(180, 0)"/>
    <path d="M149.24 0V24H145.208V0H149.24Z" fill="#050038" transform="translate(245, 0)"/>
    <path d="M175.24 0V24H172.12L159.224 7.68V24H155.192V0H158.312L171.208 16.32V0H175.24Z" fill="#050038" transform="translate(265, 0)"/>
    <path d="M204.736 0L195.904 24H191.68L182.848 0H187.36L194.032 19.2L200.704 0H204.736Z" fill="#050038" transform="translate(325, 0)"/>
  </g>
  
  <!-- FIBRE text -->
  <g transform="translate(350, 150)">
    <path d="M15.52 0V3.2H4.48V10.24H14.08V13.44H4.48V24H0.64V0H15.52Z" fill="#6e6e8e" transform="scale(0.7)"/>
    <path d="M20.48 0V24H16.64V0H20.48Z" fill="#6e6e8e" transform="translate(15, 0) scale(0.7)"/>
    <path d="M40.96 20.8V24H24.96V0H40.64V3.2H28.8V10.24H39.36V13.44H28.8V20.8H40.96Z" fill="#6e6e8e" transform="translate(25, 0) scale(0.7)"/>
    <path d="M61.44 0V24H57.92L45.76 6.4V24H41.92V0H45.44L57.6 17.6V0H61.44Z" fill="#6e6e8e" transform="translate(50, 0) scale(0.7)"/>
    <path d="M81.92 0V3.2H70.88V10.24H80.48V13.44H70.88V24H67.04V0H81.92Z" fill="#6e6e8e" transform="translate(80, 0) scale(0.7)"/>
  </g>
</svg>
